# xmcd
#
# Track frame offsets:
#	182
#	11130
#	24600
#	36467
#	47360
#	61257
#	73272
#	83975
#	98087
#	110967
#
# Disc length: 1621 seconds
#
# Revision: 0
# Processed by: cddbd v1.5.1PL0 Copyright (c) Steve Scherf et al.
# Submitted via: dBpowerAMP V4.0
#
DISCID=8906530a
DTITLE=riouVarious Artists - 25 Years of R&B
DYEAR=1900
DGENRE=
TTITLE0=Respect-Aretha Franklin
TTITLE1=Memphis Soul Stew-King Curtis
TTITLE2=Funky Broadway-Wilson Pickett
TTITLE3=Hip Hug Her - Booker T.  and The MG's
TTITLE4=Tramp - Otis Redding
TTITLE5=Soul Man - Sam&Dave
TTITLE6=Soul Finger - BarKays
TTITLE7=Skinny Legs and All - Joe Tex
TTITLE8=I Never Loved A Man - Aretha
TTITLE9=Sweet Soul Music - Arthur Conley
EXTD=
EXTT0=
EXTT1=
EXTT2=
EXTT3=
EXTT4=
EXTT5=
EXTT6=
EXTT7=
EXTT8=
EXTT9=
PLAYORDER=
